# xmcd
#
# Track frame offsets: 
#        150
#        14112
#        28184
#        42984
#        55656
#        70310
#        83312
#        99769
#        112491
#        127805
#        139122
#        154537
#        177451
#        190903
#        205050
#        217379
#        229654
#        241846
#        252028
#        266195
#
# Disc length: 3722 seconds
#
# Revision: 1
# Processed by: cddbd v1.5.2PL0 Copyright (c) Steve Scherf et al.
# Submitted via: ExactAudioCopy v0.95b4
#
DISCID=1c0e8814
DTITLE=BIG BOY WILLIAMS - BABY PLEASE DON'T GO
DYEAR=1994
DGENRE=Blues
TTITLE0=Somebody's Been Borrowing That Stuff     [1935 B-single Bluebi
TTITLE0=rd B5900 'Little Leg Woman']
TTITLE1=Providence Help The Poor People     [1935 single Bluebird B593
TTITLE1=0]
TTITLE2=Wild Cow Blues     [1935 B-single Bluebird B6200 'Baby Please 
TTITLE2=Don't Go']
TTITLE3=Baby Please Don't Go     [1941 single Bluebird B8969]
TTITLE4=Highway 49     [1941 single Bluebird B9025]
TTITLE5=Roll and Tumble     [1961 Delmark LP 'Stavin' Chain Mississippi 
TTITLE5=Blues by J. D. Short and Big Joe Williams']
TTITLE6=Jumpin' In The Moonlight     [1961 Delmark LP 'Stavin' Chain M
TTITLE6=ississippi Blues by J. D. Short and Big Joe Williams']
TTITLE7=Sweet Old Kokomo     [1961 Delmark LP 'Stavin' Chain Mississip
TTITLE7=pi Blues by J. D. Short and Big Joe Williams']
TTITLE8=Rambled And Wandered     [1961 Delmark LP 'Stavin' Chain Missi
TTITLE8=ssippi Blues by J. D. Short and Big Joe Williams']
TTITLE9=13 Highway     [1961 Delmark LP DL-604 'Blues On Highway 49']
TTITLE10=Poor Beggar     [1961 Delmark LP DL-604 'Blues On Highway 49'
TTITLE10=]
TTITLE11=Levee Camp Blues     [1965 LP Bluesville BV 1083 'Studio Blue
TTITLE11=s']
TTITLE12=Low Down Dirty Shame     [1965 LP Bluesville BV 1083 'Studio 
TTITLE12=Blues']
TTITLE13=Pea Vine Special     [1964 LP CBS 63813 (UK) 'Classic Delta B
TTITLE13=lues']
TTITLE14=Dirt Road Blues     [1964 LP CBS 63813 (UK) 'Classic Delta Bl
TTITLE14=ues']
TTITLE15=Everybody's Gonna Miss Me When I'm Gone     [1969 LP World Pa
TTITLE15=cific WP 21897 (US) 'Hand Me Down My Old Walking Stick']
TTITLE16=Old Folks Tavern     [1969 LP World Pacific WP 21897 (US) 'Ha
TTITLE16=nd Me Down My Old Walking Stick']
TTITLE17=Take It All      [1969 LP World Pacific WP 21897 (US) 'Hand M
TTITLE17=e Down My Old Walking Stick']
TTITLE18=Shady Grove     [1969 LP World Pacific WP 21897 (US) 'Hand Me
TTITLE18=Down My Old Walking Stick']
TTITLE19=Scardie Mama     [1969 LP World Pacific WP 21897 (US) 'Hand M
TTITLE19=e Down My Old Walking Stick']
EXTD=YEAR: 1994 ID3G: 0
EXTT0=
EXTT1=
EXTT2=
EXTT3=
EXTT4=
EXTT5=
EXTT6=
EXTT7=
EXTT8=
EXTT9=
EXTT10=
EXTT11=
EXTT12=
EXTT13=
EXTT14=
EXTT15=
EXTT16=
EXTT17=
EXTT18=
EXTT19=
PLAYORDER=
